<svg width="1000" height="580" viewBox="0 0 1000 580" xmlns="http://www.w3.org/2000/svg" role="img" aria-label="AI Source Scraper logo">

  <!-- ================= ILLUSTRATION ================= -->

  <!-- browser window -->
  <rect x="70" y="120" width="380" height="300" rx="18" fill="#ffffff" stroke="#312e81" stroke-width="6"/>
  <path d="M73 134 a14 14 0 0 1 14 -14 H433 a14 14 0 0 1 14 14 V166 H73 Z" fill="#312e81"/>
  <circle cx="96" cy="143" r="6.5" fill="#ff5f57"/>
  <circle cx="117" cy="143" r="6.5" fill="#febc2e"/>
  <circle cx="138" cy="143" r="6.5" fill="#28c840"/>
  <path d="M412 135 l1.8 4.2 4.2 1.8 -4.2 1.8 -1.8 4.2 -1.8 -4.2 -4.2 -1.8 4.2 -1.8 z" fill="#22d3ee"/>

  <!-- panel divider -->
  <line x1="283" y1="178" x2="283" y2="404" stroke="#e3def4" stroke-width="2"/>

  <!-- LEFT: numbered source list -->
  <circle cx="110" cy="212" r="12" fill="#4f46e5"/>
  <text x="110" y="212" text-anchor="middle" dominant-baseline="central" font-family="'Segoe UI', system-ui, Arial, sans-serif" font-size="13" font-weight="700" fill="#ffffff">1</text>
  <rect x="132" y="207" width="78" height="5" rx="2.5" fill="#312e81"/>
  <rect x="132" y="217" width="56" height="5" rx="2.5" fill="#c7cdde"/>
  <g transform="translate(252,212) rotate(-40)" fill="none" stroke="#4f46e5" stroke-width="2.4" stroke-linecap="round">
    <rect x="-8" y="-3.2" width="10" height="6.4" rx="3.2"/><rect x="-2" y="-3.2" width="10" height="6.4" rx="3.2"/>
  </g>

  <circle cx="110" cy="266" r="12" fill="#4f46e5"/>
  <text x="110" y="266" text-anchor="middle" dominant-baseline="central" font-family="'Segoe UI', system-ui, Arial, sans-serif" font-size="13" font-weight="700" fill="#ffffff">2</text>
  <rect x="132" y="261" width="78" height="5" rx="2.5" fill="#312e81"/>
  <rect x="132" y="271" width="56" height="5" rx="2.5" fill="#c7cdde"/>
  <g transform="translate(252,266) rotate(-40)" fill="none" stroke="#4f46e5" stroke-width="2.4" stroke-linecap="round">
    <rect x="-8" y="-3.2" width="10" height="6.4" rx="3.2"/><rect x="-2" y="-3.2" width="10" height="6.4" rx="3.2"/>
  </g>

  <circle cx="110" cy="320" r="12" fill="#4f46e5"/>
  <text x="110" y="320" text-anchor="middle" dominant-baseline="central" font-family="'Segoe UI', system-ui, Arial, sans-serif" font-size="13" font-weight="700" fill="#ffffff">3</text>
  <rect x="132" y="315" width="78" height="5" rx="2.5" fill="#312e81"/>
  <rect x="132" y="325" width="56" height="5" rx="2.5" fill="#c7cdde"/>
  <g transform="translate(252,320) rotate(-40)" fill="none" stroke="#4f46e5" stroke-width="2.4" stroke-linecap="round">
    <rect x="-8" y="-3.2" width="10" height="6.4" rx="3.2"/><rect x="-2" y="-3.2" width="10" height="6.4" rx="3.2"/>
  </g>

  <!-- RIGHT: activity cards -->
  <rect x="300" y="186" width="132" height="56" rx="12" fill="#ede9fe"/>
  <path d="M314 240 L314 256 L330 242 Z" fill="#ede9fe"/>
  <circle cx="320" cy="206" r="7" fill="#4f46e5"/>
  <rect x="338" y="201" width="80" height="5" rx="2.5" fill="#c7cdde"/>
  <rect x="338" y="214" width="58" height="5" rx="2.5" fill="#c7cdde"/>

  <rect x="300" y="260" width="132" height="54" rx="12" fill="#ffffff" stroke="#e6e3f5" stroke-width="2"/>
  <path d="M316 287 L332 278 M316 287 L332 296" stroke="#4f46e5" stroke-width="2.2" fill="none"/>
  <circle cx="316" cy="287" r="3.4" fill="#4f46e5"/>
  <circle cx="333" cy="278" r="3.4" fill="#4f46e5"/>
  <circle cx="333" cy="296" r="3.4" fill="#4f46e5"/>
  <rect x="348" y="282" width="70" height="5" rx="2.5" fill="#c7cdde"/>
  <rect x="348" y="294" width="52" height="5" rx="2.5" fill="#c7cdde"/>

  <!-- action badge -->
  <circle cx="452" cy="392" r="46" fill="#ffffff" stroke="#4f46e5" stroke-width="5"/>
  <path d="M430 384 H440 M430 400 H440" stroke="#4f46e5" stroke-width="5" stroke-linecap="round" opacity="0.55"/>
  <path d="M438 392 H470" stroke="#4f46e5" stroke-width="6" stroke-linecap="round"/>
  <path d="M464 382 L478 392 L464 402" fill="none" stroke="#4f46e5" stroke-width="6" stroke-linecap="round" stroke-linejoin="round"/>

  <!-- export flow -->
  <g fill="none" stroke="#4f46e5" stroke-width="2.5" stroke-dasharray="5 5" stroke-linecap="round">
    <path d="M247 422 V448"/><path d="M191 448 H303"/><path d="M191 448 V466"/><path d="M303 448 V466"/>
  </g>
  <path d="M186 462 L191 470 L196 462 Z" fill="#4f46e5"/>
  <path d="M298 462 L303 470 L308 462 Z" fill="#4f46e5"/>

  <!-- CSV file -->
  <path d="M158 470 H214 L232 488 V554 a8 8 0 0 1 -8 8 H158 a8 8 0 0 1 -8 -8 V478 a8 8 0 0 1 8 -8 Z" fill="#188838"/>
  <path d="M214 470 L232 488 H214 Z" fill="#34a853"/>
  <rect x="170" y="498" width="12" height="10" rx="1.5" fill="#ffffff"/>
  <rect x="185" y="498" width="12" height="10" rx="1.5" fill="#ffffff"/>
  <rect x="200" y="498" width="12" height="10" rx="1.5" fill="#ffffff"/>
  <rect x="170" y="512" width="12" height="10" rx="1.5" fill="#ffffff"/>
  <rect x="185" y="512" width="12" height="10" rx="1.5" fill="#ffffff"/>
  <rect x="200" y="512" width="12" height="10" rx="1.5" fill="#ffffff"/>
  <text x="191" y="549" text-anchor="middle" font-family="'Segoe UI', system-ui, Arial, sans-serif" font-size="16" font-weight="800" fill="#ffffff">CSV</text>

  <!-- JSON file -->
  <path d="M270 470 H326 L344 488 V554 a8 8 0 0 1 -8 8 H270 a8 8 0 0 1 -8 -8 V478 a8 8 0 0 1 8 -8 Z" fill="#7c3aed"/>
  <path d="M326 470 L344 488 H326 Z" fill="#a78bfa"/>
  <text x="303" y="520" text-anchor="middle" font-family="'Segoe UI', system-ui, Arial, sans-serif" font-size="30" font-weight="800" fill="#ffffff">{ }</text>
  <text x="303" y="549" text-anchor="middle" font-family="'Segoe UI', system-ui, Arial, sans-serif" font-size="15" font-weight="800" fill="#ffffff">JSON</text>

  <!-- ================= WORDMARK ================= -->
  <g font-family="'Segoe UI', system-ui, -apple-system, 'Helvetica Neue', Arial, sans-serif" font-weight="800" letter-spacing="-2">
    <text x="600" y="250" font-size="92" fill="#7c3aed">AI</text>
    <text x="600" y="345" font-size="92" fill="#312e81">Source</text>
    <text x="600" y="440" font-size="92" fill="#4f46e5">Scraper</text>
  </g>
</svg>
